<?xml version="1.0" encoding="UTF-8"?>
<svg id="Layer_1" xmlns="http://www.w3.org/2000/svg" viewBox="0 0 593.23 644">
  <defs>
    <style>
      .cls-1 {
        fill: #97979f;
        stroke-width: 5px;
      }

      .cls-1, .cls-2, .cls-3 {
        stroke: #fff;
        stroke-miterlimit: 10;
      }

      .cls-4 {
        font-size: 98px;
        letter-spacing: .08em;
      }

      .cls-2, .cls-5 {
        fill: #fff;
      }

      .cls-2, .cls-3 {
        stroke-width: 4px;
      }

      .cls-3, .cls-6 {
        fill: #e9a038;
      }

      .cls-7 {
        fill: red;
      }

      .cls-8 {
        font-family: Helvetica-Bold, Helvetica;
        font-weight: 700;
      }

      .cls-9 {
        font-family: Helvetica-Light, Helvetica;
        font-weight: 300;
      }
    </style>
  </defs>
  <path class="cls-7" d="M42.52,0h512v512H42.52V0Z"/>
  <path class="cls-2" d="M42.52,513c101.82-101.82,418.15-93.85,512,0"/>
  <path class="cls-5" d="M250.52,96h96v112h112v96h-112v112h-96v-112h-112v-96h112v-112Z"/>
  <path class="cls-1" d="M421.89,399c-8.23-25.99-68.46-30.11-134.53-9.19-66.07,20.92-112.96,58.95-104.73,84.95,8.23,25.99,68.46,30.11,134.53,9.19,66.07-20.92,112.97-58.95,104.73-84.94"/>
  <path class="cls-5" d="M396.44,404.35c-6.52-20.38-53.79-23.45-105.58-6.87-51.78,16.58-88.48,46.53-81.95,66.91,6.52,20.37,53.79,23.45,105.58,6.87,51.79-16.58,88.48-46.53,81.96-66.91"/>
  <path class="cls-6" d="M302.41,247.54s8.33,2.91,7.61,11.05c-.72,8.15-6.47,23.47-12.22,23.47s-9.51-9.1-8.14-23c1.42-14.37,12.74-11.53,12.74-11.53"/>
  <path class="cls-3" d="M260.3,257.22s18.81,27.98,32.32,31.35c18.96,4.74,68.98-11.58,68.98-11.58l-38.97,24.35s-15.06,7.48-11.68,28.7c3.38,21.23,34.25,122.4,34.25,122.4,0,0-26.04-53.4-42.45-68.12-15.57-13.97-21.23-5.08-21.23-5.08,0,0-18.33,19.3-21.22,55.95,0,0-.48-29.4,2.41-50.88,2.89-21.48,14.09-73.6,13.02-76.95-10.01-31.52-11.35-35.65-11.35-35.65l-4.09-14.51h0Z"/>
  <text class="cls-4" transform="translate(38.13 589.1)"><tspan class="cls-9" x="0" y="0">SWISS</tspan><tspan class="cls-8" x="332.71" y="0">CHI</tspan></text>
</svg>